<?xml version="1.0" standalone="no"?>
<!DOCTYPE svg PUBLIC "-//W3C//DTD SVG 20010904//EN"
 "http://www.w3.org/TR/2001/REC-SVG-20010904/DTD/svg10.dtd">
<svg version="1.0" xmlns="http://www.w3.org/2000/svg"
 width="85.000000pt" height="85.000000pt" viewBox="0 0 85.000000 85.000000"
 preserveAspectRatio="xMidYMid meet">
<metadata>
Created by potrace 1.14, written by Peter Selinger 2001-2017
</metadata>
<g transform="translate(0.000000,85.000000) scale(0.100000,-0.100000)"
fill="#000000" stroke="none">
<path d="M536 731 c-10 -11 -19 -28 -20 -38 -5 -27 19 -97 43 -131 19 -28 20
-32 5 -46 -19 -20 -40 -10 -80 37 -63 74 -72 83 -99 106 -65 55 -178 80 -257
58 -54 -15 -115 -96 -97 -129 6 -10 4 -20 -4 -27 -14 -11 -11 -111 3 -128 2
-2 3 -6 4 -10 8 -34 23 -65 51 -103 30 -43 31 -48 20 -85 -16 -57 -2 -85 42
-85 33 0 92 24 103 41 3 5 19 5 35 1 26 -7 31 -14 38 -58 12 -70 22 -90 47
-97 36 -9 92 59 104 128 5 28 21 45 41 45 27 0 159 126 149 141 -3 5 -1 9 4 9
5 0 17 25 27 55 17 47 23 55 45 55 14 0 40 9 58 20 24 15 32 27 32 48 0 24
-10 36 -55 66 -30 20 -59 36 -64 36 -6 0 -16 8 -23 18 -7 10 -31 31 -53 47
-22 17 -42 32 -45 35 -13 13 -38 8 -54 -9z m-246 -251 c0 -5 -2 -10 -4 -10 -3
0 -8 5 -11 10 -3 6 -1 10 4 10 6 0 11 -4 11 -10z"/>
</g>
</svg>
